<svg width="32" height="35" viewBox="0 0 32 35" fill="none" xmlns="http://www.w3.org/2000/svg">
<path fill-rule="evenodd" clip-rule="evenodd" d="M5.98667 10.7075C6.50031 10.5834 7.02534 10.5209 7.552 10.5212C11.7227 10.5212 15.1027 14.3839 15.1027 19.147C15.1027 23.9114 11.7227 27.7742 7.552 27.7742C3.38133 27.7742 0 23.9128 0 19.147C0 19.0076 0.00266667 18.8668 0.00933333 18.7274H0C0 11.5381 5.12 5.68848 11.4133 5.68848V8.58412C9.372 8.58412 7.48933 9.37772 5.98667 10.7075ZM22.8853 10.7075C23.3893 10.5852 23.912 10.5212 24.448 10.5212C28.6187 10.5212 32 14.3839 32 19.147C32 23.9114 28.6187 27.7742 24.448 27.7742C20.2773 27.7742 16.8973 23.9128 16.8973 19.147C16.8973 19.0076 16.9 18.8668 16.9067 18.7274H16.8973C16.8973 11.5381 22.0173 5.68848 28.3107 5.68848V8.58412C26.268 8.58412 24.388 9.37772 22.8853 10.7075Z" fill="#DBD0C8"/>
</svg>
